<?xml version="1.0" standalone="no"?>
<!DOCTYPE svg PUBLIC "-//W3C//DTD SVG 20010904//EN"
 "http://www.w3.org/TR/2001/REC-SVG-20010904/DTD/svg10.dtd">
<svg version="1.0" xmlns="http://www.w3.org/2000/svg"
 width="700.000000pt" height="700.000000pt" viewBox="0 0 700.000000 700.000000"
 preserveAspectRatio="xMidYMid meet">
<metadata>
Created by potrace 1.11, written by Peter Selinger 2001-2013
</metadata>
<g transform="translate(0.000000,700.000000) scale(0.100000,-0.100000)"
fill="#000000" stroke="none">
<path d="M1033 6399 c-227 -56 -395 -235 -439 -469 -7 -37 -13 -5307 -6 -5327
2 -6 263 248 580 565 l577 577 2100 5 2100 5 66 22 c186 64 327 212 387 408
13 44 15 271 17 1880 1 1499 -1 1841 -12 1888 -48 212 -195 370 -406 439 -62
21 -72 21 -2478 23 -2267 1 -2419 0 -2486 -16z m4217 -1438 c0 -267 -1 -289
-17 -292 -10 -3 -796 -4 -1748 -3 l-1730 0 -3 292 -2 292 1750 0 1750 0 0
-289z m-2 -879 l2 -292 -1750 0 -1750 0 0 288 c0 159 2 291 4 293 2 2 789 4
1748 4 l1743 0 3 -293z m-1163 -862 c0 -151 -3 -282 -6 -290 -6 -13 -144 -15
-1161 -13 -634 0 -1156 1 -1160 2 -5 1 -8 132 -8 291 l0 290 1167 -2 1167 -3
1 -275z"/>
</g>
</svg>
